                        <svg width="14" height="15" viewBox="0 0 14 15" fill="none" xmlns="http://www.w3.org/2000/svg">
                            <path
                                d="M7 14.2C3.27198 14.2 0.25 11.178 0.25 7.44995C0.25 4.4273 2.23652 1.86905 4.975 1.0091V2.4428C3.81462 2.91398 2.85401 3.7737 2.25749 4.8749C1.66097 5.97611 1.4656 7.25036 1.7048 8.47969C1.944 9.70903 2.60291 10.8171 3.56882 11.6142C4.53472 12.4114 5.74761 12.8482 7 12.85C8.0758 12.8499 9.1271 12.5287 10.0192 11.9274C10.9112 11.3261 11.6035 10.4721 12.0071 9.47495H13.4409C12.5809 12.2134 10.0227 14.2 7 14.2ZM13.7163 8.12495H6.325V0.733701C6.54708 0.711426 6.77253 0.699951 7 0.699951C10.728 0.699951 13.75 3.72193 13.75 7.44995C13.75 7.67743 13.7385 7.90288 13.7163 8.12495ZM7.675 2.0918V6.77495H12.3582C12.2079 5.58534 11.6662 4.4795 10.8183 3.63163C9.97045 2.78377 8.86462 2.24205 7.675 2.0918Z"
                                fill="white" />
                        </svg>